# xmcd CD database file
#
# Track frame offsets:
#	150
#	13545
#	28719
#	47450
#	63454
#	80001
#	98298
#	118971
#
# Disc length: 1820 seconds
#
# Revision: 1
# Processed by: cddbd v1.5.2PL0 Copyright (c) Steve Scherf et al.
# Submitted via: CDex 1.83
#
DISCID=5b071a08
DTITLE=Miley Cyrus - The Time Of Our Lives
DYEAR=2009
DGENRE=Rock
TTITLE0=Kicking And Screaming
TTITLE1=Party In The U.S.A.
TTITLE2=When I Look At You
TTITLE3=The Time Of Our Lives
TTITLE4=Talk Is Cheap
TTITLE5=Obsessed
TTITLE6=Before The Storm (Featuring Jonas Brothers) (Live 20-6-2009 New Cowboys Stadium, Dallas)
TTITLE7=The Climb
EXTD=YEAR: 2009
EXTT0=
EXTT1=
EXTT2=
EXTT3=
EXTT4=
EXTT5=
EXTT6=
EXTT7=
PLAYORDER=
